<svg width="194" height="40" viewBox="0 0 194 40" fill="none" xmlns="http://www.w3.org/2000/svg">
<rect x="0.5" y="0.5" width="193" height="39" stroke="#5D4043"/>
<path d="M33.9 18.9C30.7 17 25.35 16.8 22.3 17.75C21.8 17.9 21.3 17.6 21.15 17.15C21 16.65 21.3 16.15 21.75 16C25.3 14.95 31.15 15.15 34.85 17.35C35.3 17.6 35.45 18.2 35.2 18.65C34.95 19 34.35 19.15 33.9 18.9ZM33.8 21.7C33.55 22.05 33.1 22.2 32.75 21.95C30.05 20.3 25.95 19.8 22.8 20.8C22.4 20.9 21.95 20.7 21.85 20.3C21.75 19.9 21.95 19.45 22.35 19.35C26 18.25 30.5 18.8 33.6 20.7C33.9 20.85 34.05 21.35 33.8 21.7ZM32.6 24.45C32.4 24.75 32.05 24.85 31.75 24.65C29.4 23.2 26.45 22.9 22.95 23.7C22.6 23.8 22.3 23.55 22.2 23.25C22.1 22.9 22.35 22.6 22.65 22.5C26.45 21.65 29.75 22 32.35 23.6C32.7 23.75 32.75 24.15 32.6 24.45ZM28 10C26.6868 10 25.3864 10.2587 24.1732 10.7612C22.9599 11.2638 21.8575 12.0003 20.9289 12.9289C19.0536 14.8043 18 17.3478 18 20C18 22.6522 19.0536 25.1957 20.9289 27.0711C21.8575 27.9997 22.9599 28.7362 24.1732 29.2388C25.3864 29.7413 26.6868 30 28 30C30.6522 30 33.1957 28.9464 35.0711 27.0711C36.9464 25.1957 38 22.6522 38 20C38 18.6868 37.7413 17.3864 37.2388 16.1732C36.7362 14.9599 35.9997 13.8575 35.0711 12.9289C34.1425 12.0003 33.0401 11.2638 31.8268 10.7612C30.6136 10.2587 29.3132 10 28 10Z" fill="#5D4043"/>
<path d="M44.285 20.98H46.28C46.46 22.735 47.54 23.545 49.61 23.545C51.455 23.545 52.265 23.11 52.265 22.24C52.265 21.595 51.92 21.25 50.87 21.055L47.54 20.455C45.65 20.11 44.585 19.195 44.57 17.71C44.57 15.835 46.325 14.71 49.1 14.71C52.07 14.71 53.9 16.195 54.095 18.73H52.115C51.95 17.17 50.96 16.405 49.1 16.405C47.36 16.405 46.55 16.87 46.535 17.695C46.565 18.325 46.91 18.625 47.9 18.805L51.245 19.405C53.21 19.765 54.23 20.695 54.23 22.21C54.23 24.145 52.52 25.24 49.61 25.24C46.415 25.24 44.525 23.71 44.285 20.98ZM57.0644 27.7H55.2794V17.5H56.9294L57.0344 18.565H57.1694C57.7394 17.815 58.7144 17.29 59.9894 17.29C62.2394 17.29 63.9044 18.91 63.9044 21.25C63.9044 23.59 62.2394 25.21 59.9894 25.21C58.7144 25.21 57.7544 24.685 57.1994 23.935H57.0644V27.7ZM57.0194 21.25C57.0194 22.675 57.9794 23.68 59.5394 23.68C61.1444 23.68 62.0744 22.765 62.0744 21.25C62.0744 19.735 61.1294 18.82 59.5394 18.82C57.9794 18.82 57.0194 19.825 57.0194 21.25ZM64.6484 21.25C64.6484 18.91 66.4334 17.29 68.9984 17.29C71.5784 17.29 73.3634 18.91 73.3634 21.25C73.3634 23.59 71.5784 25.21 68.9984 25.21C66.4334 25.21 64.6484 23.59 64.6484 21.25ZM66.4784 21.25C66.4784 22.765 67.4234 23.68 68.9984 23.68C70.5884 23.68 71.5334 22.765 71.5334 21.25C71.5334 19.735 70.5884 18.82 68.9984 18.82C67.4234 18.82 66.4784 19.735 66.4784 21.25ZM75.0023 19.12H73.5623V17.65H75.0023V16.09L76.7873 15.7V17.65H78.8723V19.12H76.7873V22.87C76.7873 23.305 76.9523 23.47 77.3873 23.47H78.9473V25H77.1623C75.6173 25 75.0023 24.46 75.0023 22.975V19.12ZM79.3634 15.505C79.3634 14.89 79.9484 14.41 80.7884 14.41C81.6434 14.41 82.2284 14.89 82.2284 15.505C82.2284 16.12 81.6434 16.6 80.7884 16.6C79.9484 16.6 79.3634 16.12 79.3634 15.505ZM81.6884 17.5V25H79.9034V17.5H81.6884ZM83.9553 19.12H82.3953V17.65H83.9553V16.975C83.9553 15.49 84.5853 14.935 86.1153 14.935H88.2453V16.465H86.3553C85.9053 16.465 85.7403 16.63 85.7403 17.08V17.65H88.1703V19.12H85.7403V25H83.9553V19.12ZM92.0995 25L88.6345 17.5H90.6295L93.1795 23.515H93.3595L95.8645 17.5H97.8445L93.7045 26.635C93.3295 27.475 93.0295 27.7 92.0845 27.7H89.8195V26.17H91.7845C92.1895 26.17 92.2795 26.095 92.3995 25.795L92.7595 25H92.0995ZM101.842 19.975C101.842 16.885 104.137 14.71 107.377 14.71C110.407 14.71 112.537 16.48 112.882 19.18H110.857C110.587 17.455 109.312 16.42 107.377 16.42C105.232 16.42 103.837 17.83 103.837 19.975C103.837 22.12 105.232 23.53 107.392 23.53C109.372 23.53 110.647 22.45 110.902 20.68H112.912C112.597 23.425 110.467 25.24 107.392 25.24C104.137 25.24 101.842 23.065 101.842 19.975ZM113.706 21.25C113.706 18.91 115.491 17.29 118.056 17.29C120.636 17.29 122.421 18.91 122.421 21.25C122.421 23.59 120.636 25.21 118.056 25.21C115.491 25.21 113.706 23.59 113.706 21.25ZM115.536 21.25C115.536 22.765 116.481 23.68 118.056 23.68C119.646 23.68 120.591 22.765 120.591 21.25C120.591 19.735 119.646 18.82 118.056 18.82C116.481 18.82 115.536 19.735 115.536 21.25ZM125.194 25H123.409V17.5H125.059L125.164 18.58H125.299C125.854 17.815 126.814 17.29 128.059 17.29C130.249 17.29 131.584 18.505 131.584 20.875V25H129.784V21.1C129.784 19.585 129.214 18.835 127.654 18.835C126.169 18.835 125.194 19.75 125.194 21.25V25ZM134.54 25H132.755V17.5H134.405L134.51 18.58H134.645C135.2 17.815 136.16 17.29 137.405 17.29C139.595 17.29 140.93 18.505 140.93 20.875V25H139.13V21.1C139.13 19.585 138.56 18.835 137 18.835C135.515 18.835 134.54 19.75 134.54 21.25V25ZM141.86 21.25C141.86 18.88 143.6 17.305 146.165 17.29C148.865 17.29 150.605 19 150.425 21.64H143.69C143.84 22.885 144.785 23.695 146.18 23.695C147.38 23.71 148.205 23.155 148.55 22.285H150.425C149.99 24.055 148.37 25.225 146.18 25.21C143.615 25.21 141.86 23.605 141.86 21.25ZM143.75 20.395H148.505C148.325 19.39 147.44 18.79 146.18 18.79C144.92 18.79 143.945 19.39 143.75 20.395ZM151.191 21.25C151.191 18.91 152.961 17.29 155.526 17.29C157.836 17.275 159.546 18.64 159.771 20.665H157.956C157.761 19.51 156.861 18.805 155.526 18.82C153.966 18.82 153.021 19.75 153.021 21.25C153.021 22.75 153.966 23.68 155.526 23.68C156.906 23.695 157.821 22.975 158.016 21.79H159.831C159.606 23.845 157.896 25.225 155.526 25.21C152.961 25.21 151.191 23.59 151.191 21.25ZM161.457 19.12H160.017V17.65H161.457V16.09L163.242 15.7V17.65H165.327V19.12H163.242V22.87C163.242 23.305 163.407 23.47 163.842 23.47H165.402V25H163.617C162.072 25 161.457 24.46 161.457 22.975V19.12ZM176.919 19.975C176.919 22.93 174.549 25.18 171.564 25.18C168.579 25.18 166.209 22.93 166.209 19.975C166.209 17.02 168.579 14.77 171.564 14.77C174.549 14.77 176.919 17.02 176.919 19.975ZM176.049 19.975C176.049 17.53 174.069 15.64 171.564 15.64C169.059 15.64 167.079 17.53 167.079 19.975C167.079 22.42 169.059 24.31 171.564 24.31C174.069 24.31 176.049 22.42 176.049 19.975ZM170.064 22.765H169.044V17.17H172.704C173.694 17.17 174.309 17.695 174.309 18.595C174.309 19.315 173.949 19.675 173.349 19.855V19.945C173.814 20.05 173.949 20.29 174.009 20.725L174.339 22.765H173.244L173.019 21.04C172.944 20.44 172.554 20.35 172.059 20.35H170.064V22.765ZM170.064 18.055V19.435H172.314C172.944 19.435 173.244 19.165 173.244 18.73C173.244 18.28 172.974 18.055 172.329 18.055H170.064Z" fill="#5D4043"/>
</svg>
