<svg id="Groupe_5084" data-name="Groupe 5084" xmlns="http://www.w3.org/2000/svg" xmlns:xlink="http://www.w3.org/1999/xlink" width="54.754" height="54.754" viewBox="0 0 54.754 54.754">
  <defs>
    <clipPath id="clip-path">
      <rect id="Rectangle_335" data-name="Rectangle 335" width="54.754" height="54.754" fill="none"/>
    </clipPath>
  </defs>
  <g id="Groupe_4827" data-name="Groupe 4827" transform="translate(0 0)" clip-path="url(#clip-path)">
    <path id="Tracé_3044" data-name="Tracé 3044" d="M51.447,24.465,47.095,25A19.7,19.7,0,0,0,43,15.131l3.468-2.7a2.943,2.943,0,1,0-4.124-4.138l-2.7,3.482a19.807,19.807,0,0,0-9.882-4.111L30.3,3.307a2.948,2.948,0,1,0-5.852,0L25,7.659a19.807,19.807,0,0,0-9.882,4.111L12.426,8.289a2.947,2.947,0,1,0-4.138,4.138l3.468,2.7A19.7,19.7,0,0,0,7.659,25l-4.352-.536A2.941,2.941,0,1,0,3.294,30.3l4.365-.549a19.69,19.69,0,0,0,4.1,9.882l-3.468,2.7a2.939,2.939,0,1,0,4.124,4.124L15.118,43A19.79,19.79,0,0,0,25,47.095l-.549,4.352a2.947,2.947,0,1,0,5.852.013l-.549-4.365A19.79,19.79,0,0,0,39.636,43l2.692,3.468a2.944,2.944,0,1,0,4.138-4.124L43,39.636a19.69,19.69,0,0,0,4.1-9.882l4.352.549a2.942,2.942,0,1,0,0-5.838M7.526,28.214l-4.419.549a1.389,1.389,0,1,1,0-2.758l4.419.549c-.013.469-.013,1.178,0,1.66M27.37,30.651a3.267,3.267,0,1,1,3.281-3.267,3.263,3.263,0,0,1-3.281,3.267M18.3,15.091a15.214,15.214,0,0,1,6.789-2.785v9.561Zm6.789,17.8v9.574a15.123,15.123,0,0,1-6.762-2.812Zm4.566-11.02V12.306a15.1,15.1,0,0,1,6.776,2.785Zm0,11.02,6.762,6.762a15.123,15.123,0,0,1-6.762,2.812Zm3.227-7.793,6.789-6.776a15.29,15.29,0,0,1,2.785,6.776Zm-11.02,0H12.293a15.29,15.29,0,0,1,2.785-6.776Zm0,4.566L15.1,36.422a15.123,15.123,0,0,1-2.812-6.762Zm11.02,0h9.574a15.276,15.276,0,0,1-2.812,6.762ZM43.56,9.24a1.392,1.392,0,1,1,1.955,1.955L41.993,13.94c-.335-.375-.8-.844-1.165-1.178ZM27.37,1.553a1.394,1.394,0,0,1,1.393,1.553L28.2,7.539c-.5-.027-1.205-.027-1.66,0l-.549-4.432A1.384,1.384,0,0,1,27.37,1.553M9.239,11.195A1.392,1.392,0,1,1,11.195,9.24l2.732,3.522c-.362.335-.83.8-1.165,1.178Zm1.955,34.32a1.381,1.381,0,0,1-2.076.134,1.4,1.4,0,0,1,.121-2.089l3.522-2.732c.335.362.8.83,1.165,1.178ZM27.37,53.2a1.385,1.385,0,0,1-1.379-1.553l.549-4.419c.482.013,1.192.013,1.66,0l.562,4.419A1.388,1.388,0,0,1,27.37,53.2M45.515,43.56a1.393,1.393,0,1,1-1.955,1.955l-2.732-3.508c.362-.335.83-.817,1.165-1.178Zm6.133-14.8-4.432-.549c.027-.482.027-1.192,0-1.66L51.647,26A1.371,1.371,0,0,1,53.2,27.384a1.385,1.385,0,0,1-1.553,1.379" transform="translate(0 0)" fill="#b4dbdf"/>
    <path id="Tracé_3045" data-name="Tracé 3045" d="M51.447,24.465,47.095,25A19.7,19.7,0,0,0,43,15.131l3.468-2.7a2.943,2.943,0,1,0-4.124-4.138l-2.7,3.482a19.807,19.807,0,0,0-9.882-4.111L30.3,3.307a2.948,2.948,0,1,0-5.852,0L25,7.659a19.807,19.807,0,0,0-9.882,4.111L12.426,8.289a2.947,2.947,0,1,0-4.138,4.138l3.468,2.7A19.7,19.7,0,0,0,7.659,25l-4.352-.536A2.941,2.941,0,1,0,3.294,30.3l4.365-.549a19.69,19.69,0,0,0,4.1,9.882l-3.468,2.7a2.939,2.939,0,1,0,4.124,4.124L15.118,43A19.79,19.79,0,0,0,25,47.095l-.549,4.352a2.947,2.947,0,1,0,5.852.013l-.549-4.365A19.79,19.79,0,0,0,39.636,43l2.692,3.468a2.944,2.944,0,1,0,4.138-4.124L43,39.636a19.69,19.69,0,0,0,4.1-9.882l4.352.549a2.942,2.942,0,1,0,0-5.838M27.37,45.689a18.312,18.312,0,1,1,18.318-18.3,18.33,18.33,0,0,1-18.318,18.3" transform="translate(0 0)" fill="#0e4342"/>
    <path id="Tracé_3046" data-name="Tracé 3046" d="M24.7,41.507A16.8,16.8,0,1,0,7.9,24.7a16.818,16.818,0,0,0,16.8,16.8M12.4,15.637l6.782,6.782H9.617A15.174,15.174,0,0,1,12.4,15.637m13.026-6.17V19.933a5.15,5.15,0,0,0-1.464,0V9.467c.564-.027,1.09-.017,1.464,0M39.783,22.42h-9.57L37,15.637a15.183,15.183,0,0,1,2.788,6.782M36.972,33.746l-6.76-6.76H39.78a15.164,15.164,0,0,1-2.808,6.76M34.95,35.987l-7.4-7.4a5.174,5.174,0,0,0,1.034-1.034l7.4,7.4q-.492.54-1.034,1.034M13.414,34.953l7.4-7.4a5.177,5.177,0,0,0,1.035,1.034l-7.4,7.4q-.542-.492-1.035-1.034m7.4-13.105-7.4-7.4c.312-.343.678-.71,1.035-1.035l7.4,7.4a5.261,5.261,0,0,0-1.035,1.035m3.89-.415a3.27,3.27,0,1,1-3.273,3.27,3.269,3.269,0,0,1,3.273-3.27m2.855-.62,7.4-7.4c.343.312.708.678,1.034,1.035l-7.4,7.4a5.182,5.182,0,0,0-1.034-1.035m-5.138,9.4v9.568a15.175,15.175,0,0,1-6.761-2.808ZM24.7,39.955c-.245,0-.489-.007-.732-.019V29.471a5.153,5.153,0,0,0,1.464,0V39.936c-.242.012-.486.019-.731.019m2.283-9.739,6.76,6.76a15.164,15.164,0,0,1-6.76,2.808Zm12.95-4.782H29.468a5.054,5.054,0,0,0,0-1.464H39.934c.025.536.021.987,0,1.464M26.983,19.19V9.622a15.2,15.2,0,0,1,6.782,2.785Zm-4.566,0-6.782-6.781a15.179,15.179,0,0,1,6.782-2.787ZM9.464,23.97H19.93a5.1,5.1,0,0,0,0,1.464H9.465c-.021-.475-.025-.925,0-1.464m9.723,3.016-6.76,6.76a15.149,15.149,0,0,1-2.808-6.76Z" transform="translate(2.677 2.678)" fill="#0e4342"/>
  </g>
</svg>
