<svg width="67" height="67" viewBox="0 0 67 67" fill="none" xmlns="http://www.w3.org/2000/svg">
<g clip-path="url(#clip0_132_2856)">
<path d="M61.9456 38.113C62.2062 40.6288 60.3788 42.8776 57.8631 43.1349C56.1194 43.3151 54.5076 42.4947 53.594 41.1339C53.594 41.1307 53.5908 41.1275 53.5875 41.1242L53.4235 40.8572L49.6562 34.7962L56.9076 34.0305H56.9398C56.9591 34.0241 56.9784 34.0241 56.9977 34.0241C59.4845 33.8053 61.6946 35.6198 61.952 38.113H61.9456Z" fill="#30171B"/>
<path d="M48.5848 12.6207C48.1601 6.92964 43.4117 1.19998 39.3099 0C39.8117 1.19998 42.3018 5.52376 38.126 8.6733C37.7367 7.82399 34.5164 2.05894 32.007 0.572644C32.6086 2.51899 35.2274 7.47011 26.1004 10.6196C16.9767 13.7692 14.6057 21.6897 18.9553 25.8655C16.5167 25.547 12.3859 26.2773 10.5522 31.2252C8.72167 36.1763 15.751 48.7519 6 51.1262C10.0568 51.9691 16.2465 51.2774 16.2465 51.2774L12.5178 64.9372C12.3506 66.2176 13.3543 67.3532 14.6444 67.35L56.0452 67.2728C57.2838 67.2696 58.2618 66.224 58.1782 64.9887C57.879 60.6488 56.1836 50.2125 47.5167 34.5677C49.1831 33.8085 53.1273 31.608 53.1273 31.608C48.5429 28.7544 44.9012 28.2944 44.9012 28.2944C44.9012 28.2944 49.2475 21.516 48.5848 12.6239V12.6207ZM37.9008 32.6118C36.6204 32.6118 35.5845 31.5758 35.5845 30.2954C35.5845 29.015 36.6204 27.9823 37.9008 27.9823C39.1812 27.9823 40.2171 29.0183 40.2171 30.2987C40.2171 31.5791 39.1812 32.6118 37.9008 32.6118Z" fill="#30171B"/>
</g>
<defs>
<clipPath id="clip0_132_2856">
<rect width="67" height="67" fill="white"/>
</clipPath>
</defs>
</svg>
