<svg width="295" height="36" viewBox="0 0 295 36" fill="none" xmlns="http://www.w3.org/2000/svg">
<path d="M7.22855 35.4396C4.20988 35.4396 2.51005 33.5932 2.51005 29.9884V13.5762H0.546447L0.253372 12.5505C3.06689 12.5505 5.79248 8.71121 5.99763 3.34795H7.14062V12.1402H11.6833V13.5762H9.30938C7.844 13.5762 7.14062 14.2796 7.14062 15.7157V28.9627C7.14062 31.4245 7.75608 32.5968 9.07492 32.5968C10.4231 32.5968 11.3609 30.6332 11.654 27.1749H12.5625C12.2108 32.6261 10.7161 35.4396 7.22855 35.4396ZM33.7266 34.1208L34.0783 35H24.4655L24.8171 34.1208C26.136 34.0035 26.9859 33.4174 26.9859 31.4831V18.0603C26.9859 15.7743 26.2532 14.6899 24.6706 14.6899C22.326 14.6899 20.3624 17.2983 20.3624 20.5807V31.4831C20.3624 33.4174 21.2123 34.0035 22.5312 34.1208L22.8828 35H13.27L13.6217 34.1208C14.9405 34.0035 15.7904 33.4174 15.7904 31.4831V6.57177C15.7904 4.66678 15.2336 3.93409 13.6217 3.64102L13.2114 2.7618C16.6111 2.7618 18.5747 2.02911 19.4246 0.417201H20.3624V16.2139C21.7985 13.5176 24.2017 11.7006 26.7807 11.7006C29.7408 11.7006 31.5579 13.84 31.5579 17.4155V31.4831C31.5579 33.4174 32.4078 34.0035 33.7266 34.1208ZM49.7723 26.5888H50.7395C49.9482 32.1572 47.3691 35.4396 43.1488 35.4396C38.6648 35.4396 35.2065 31.0435 35.2065 23.8925C35.2065 16.8001 38.4596 11.7006 44.2332 11.7006C48.1604 11.7006 50.6809 14.6899 50.6809 19.3205C50.6809 20.2877 50.2706 20.5221 49.4499 20.8445L41.5955 23.9511C40.3939 24.4493 40.1009 25.1527 40.306 26.8818C40.9801 30.7797 42.6799 32.6554 45.0831 32.6554C47.3398 32.6554 49.1862 30.3401 49.7723 26.5888ZM43.9694 13.0194C41.1852 13.0194 39.9836 16.3311 39.9836 22.515V23.277C45.4641 20.7566 46.2554 19.936 46.2554 17.2397C46.2554 14.8365 45.5227 13.0194 43.9694 13.0194ZM59.823 35L60.1746 34.1208C61.4935 34.0035 62.3434 33.4174 62.3434 31.4831V13.5762H60.0867L59.7936 12.5505C61.8159 12.404 62.3434 11.6127 62.3434 7.59753C62.3434 2.61526 64.8638 0.124126 68.3807 0.124126C71.077 0.124126 74.1543 2.05842 74.1543 4.95986C74.1543 6.80623 72.7475 8.38883 70.8132 8.38883C69.8461 8.38883 68.879 8.00783 68.3807 7.42168C69.6996 7.24584 70.4616 6.19077 70.4616 4.52024C70.4616 3.34795 69.5823 1.56019 67.736 1.56019C66.2999 1.56019 65.2741 2.61526 65.2741 4.81332C65.2741 7.59753 66.9154 8.59398 66.9154 12.1402H71.1649V13.5762H68.879C67.648 13.5762 66.9154 14.3089 66.9154 15.5985V31.4831C66.9154 33.4174 68.0877 34.0035 69.9047 34.1208L70.2564 35H59.823ZM84.4845 11.7006C86.917 11.7006 88.5289 13.1953 88.5289 15.7157C88.5289 17.8551 87.0342 19.7894 84.9241 19.7894C83.9863 19.7894 82.9898 19.467 82.5795 18.9688C83.7518 18.6464 84.7189 17.6793 84.7189 16.0381C84.7189 14.8951 84.2207 14.1331 83.3122 14.1331C81.3779 14.1331 79.0626 18.0603 79.0626 22.0754V31.4831C79.0626 33.4174 80.2349 34.0035 82.052 34.1208L82.4037 35H71.9702L72.3219 34.1208C73.6407 34.0035 74.4906 33.4174 74.4906 31.4831V17.8551C74.4906 15.9502 73.9338 15.2175 72.3219 14.9244L71.9116 14.0452C75.3113 14.0452 77.2749 13.3125 78.1248 11.7006H79.0626V16.8294C80.147 13.84 82.2278 11.7006 84.4845 11.7006ZM104.262 26.5888H105.229C104.437 32.1572 101.858 35.4396 97.6381 35.4396C93.1541 35.4396 89.6958 31.0435 89.6958 23.8925C89.6958 16.8001 92.9489 11.7006 98.7225 11.7006C102.65 11.7006 105.17 14.6899 105.17 19.3205C105.17 20.2877 104.76 20.5221 103.939 20.8445L96.0848 23.9511C94.8832 24.4493 94.5901 25.1527 94.7953 26.8818C95.4694 30.7797 97.1692 32.6554 99.5724 32.6554C101.829 32.6554 103.675 30.3401 104.262 26.5888ZM98.4587 13.0194C95.6745 13.0194 94.4729 16.3311 94.4729 22.515V23.277C99.9534 20.7566 100.745 19.936 100.745 17.2397C100.745 14.8365 100.012 13.0194 98.4587 13.0194ZM127.287 34.1208L127.638 35H118.026L118.377 34.1208C119.696 34.0035 120.546 33.4174 120.546 31.4831V18.0603C120.546 15.7743 119.813 14.6899 118.231 14.6899C115.886 14.6899 113.922 17.2983 113.922 20.5807V31.4831C113.922 33.4174 114.772 34.0035 116.091 34.1208L116.443 35H106.83L107.182 34.1208C108.501 34.0035 109.35 33.4174 109.35 31.4831V17.8551C109.35 15.9502 108.794 15.2175 107.182 14.9244L106.771 14.0452C110.171 14.0452 112.135 13.3125 112.985 11.7006H113.922V16.2139C115.359 13.5176 117.762 11.7006 120.341 11.7006C123.301 11.7006 125.118 13.84 125.118 17.4155V31.4831C125.118 33.4174 125.968 34.0035 127.287 34.1208ZM136.631 35.4396C131.971 35.4396 128.747 31.0435 128.747 23.9218C128.747 16.3898 132.733 11.7006 137.598 11.7006C140.001 11.7006 140.968 12.7849 141.672 12.7849C141.965 12.7849 142.199 12.697 142.375 11.9057H143.049L143.958 20.4928L143.108 20.2877C142.023 16.2139 140.411 13.1073 138.243 13.1073C135.429 13.1073 133.641 17.269 133.641 22.5443C133.641 29.1971 135.4 32.6554 138.565 32.6554C140.851 32.6554 142.697 30.3401 143.284 26.5888H144.221C143.459 32.1572 140.851 35.4396 136.631 35.4396ZM165.821 34.1208L166.172 35H156.559L156.911 34.1208C158.23 34.0035 159.08 33.4174 159.08 31.4831V18.0603C159.08 15.7743 158.347 14.6899 156.765 14.6899C154.42 14.6899 152.456 17.2983 152.456 20.5807V31.4831C152.456 33.4174 153.306 34.0035 154.625 34.1208L154.977 35H145.364L145.716 34.1208C147.034 34.0035 147.884 33.4174 147.884 31.4831V6.57177C147.884 4.66678 147.328 3.93409 145.716 3.64102L145.305 2.7618C148.705 2.7618 150.669 2.02911 151.518 0.417201H152.456V16.2139C153.892 13.5176 156.296 11.7006 158.875 11.7006C161.835 11.7006 163.652 13.84 163.652 17.4155V31.4831C163.652 33.4174 164.502 34.0035 165.821 34.1208ZM180.739 35.4396C177.721 35.4396 176.021 33.5932 176.021 29.9884V13.5762H174.057L173.764 12.5505C176.578 12.5505 179.303 8.71121 179.508 3.34795H180.651V12.1402H185.194V13.5762H182.82C181.355 13.5762 180.651 14.2796 180.651 15.7157V28.9627C180.651 31.4245 181.267 32.5968 182.586 32.5968C183.934 32.5968 184.872 30.6332 185.165 27.1749H186.073C185.722 32.6261 184.227 35.4396 180.739 35.4396ZM196.208 35.4396C190.903 35.4396 187.386 30.6918 187.386 23.5701C187.386 16.4484 190.933 11.7006 196.208 11.7006C201.513 11.7006 205.059 16.4484 205.059 23.5701C205.059 30.6625 201.513 35.4396 196.208 35.4396ZM196.677 34.0622C198.933 34.0622 200.223 31.19 200.223 25.944C200.223 17.7379 198.494 13.0487 195.739 13.0487C193.512 13.0487 192.251 15.8915 192.251 21.1083C192.251 29.1092 194.039 34.0622 196.677 34.0622ZM213.192 35.4396C210.173 35.4396 208.474 33.5932 208.474 29.9884V13.5762H206.51L206.217 12.5505C209.03 12.5505 211.756 8.71121 211.961 3.34795H213.104V12.1402H217.647V13.5762H215.273C213.808 13.5762 213.104 14.2796 213.104 15.7157V28.9627C213.104 31.4245 213.72 32.5968 215.039 32.5968C216.387 32.5968 217.324 30.6332 217.618 27.1749H218.526C218.174 32.6261 216.68 35.4396 213.192 35.4396ZM228.661 35.4396C223.356 35.4396 219.839 30.6918 219.839 23.5701C219.839 16.4484 223.385 11.7006 228.661 11.7006C233.965 11.7006 237.512 16.4484 237.512 23.5701C237.512 30.6625 233.965 35.4396 228.661 35.4396ZM229.13 34.0622C231.386 34.0622 232.676 31.19 232.676 25.944C232.676 17.7379 230.947 13.0487 228.192 13.0487C225.964 13.0487 224.704 15.8915 224.704 21.1083C224.704 29.1092 226.492 34.0622 229.13 34.0622ZM245.645 35.4396C242.626 35.4396 240.926 33.5932 240.926 29.9884V13.5762H238.963L238.67 12.5505C241.483 12.5505 244.209 8.71121 244.414 3.34795H245.557V12.1402H250.1V13.5762H247.726C246.26 13.5762 245.557 14.2796 245.557 15.7157V28.9627C245.557 31.4245 246.173 32.5968 247.491 32.5968C248.84 32.5968 249.777 30.6332 250.07 27.1749H250.979C250.627 32.6261 249.133 35.4396 245.645 35.4396ZM258.385 35.4396C255.367 35.4396 253.667 33.5932 253.667 29.9884V13.5762H251.703L251.41 12.5505C254.224 12.5505 256.949 8.71121 257.155 3.34795H258.298V12.1402H262.84V13.5762H260.466C259.001 13.5762 258.298 14.2796 258.298 15.7157V28.9627C258.298 31.4245 258.913 32.5968 260.232 32.5968C261.58 32.5968 262.518 30.6332 262.811 27.1749H263.719C263.368 32.6261 261.873 35.4396 258.385 35.4396ZM279.598 26.5888H280.565C279.774 32.1572 277.195 35.4396 272.975 35.4396C268.491 35.4396 265.033 31.0435 265.033 23.8925C265.033 16.8001 268.286 11.7006 274.059 11.7006C277.986 11.7006 280.507 14.6899 280.507 19.3205C280.507 20.2877 280.097 20.5221 279.276 20.8445L271.422 23.9511C270.22 24.4493 269.927 25.1527 270.132 26.8818C270.806 30.7797 272.506 32.6554 274.909 32.6554C277.166 32.6554 279.012 30.3401 279.598 26.5888ZM273.795 13.0194C271.011 13.0194 269.81 16.3311 269.81 22.515V23.277C275.29 20.7566 276.081 19.936 276.081 17.2397C276.081 14.8365 275.349 13.0194 273.795 13.0194Z" fill="#816A6C"/>
<path d="M290.469 13.6168C292.357 13.6168 293.679 15.1383 293.679 17.3262C293.679 19.4808 292.357 21.0023 290.469 21.0023C288.592 21.0023 287.27 19.4808 287.27 17.3262C287.27 15.1383 288.592 13.6168 290.469 13.6168ZM290.469 20.5136C292.046 20.5136 293.145 19.2587 293.145 17.3262C293.145 15.3605 292.046 14.0944 290.48 14.0944C288.914 14.0944 287.803 15.3716 287.803 17.3262C287.803 19.2587 288.892 20.5136 290.469 20.5136ZM291.579 18.2702C291.746 18.5923 292.002 18.9366 292.213 18.9588L292.257 19.1587H291.368C291.135 19.1587 290.991 18.9366 290.791 18.3369C290.502 17.5372 290.28 17.2707 290.002 17.1707V18.3813C290.002 18.8144 290.091 18.9477 290.358 18.9588L290.391 19.1587H288.836L288.881 18.9588C289.103 18.9477 289.247 18.87 289.247 18.3813V16.0601C289.247 15.5715 289.103 15.4826 288.881 15.4604L288.836 15.2938H289.347C289.769 15.2938 290.158 15.2605 290.347 15.2605C291.302 15.2605 291.835 15.6048 291.835 16.2156C291.835 16.7154 291.368 17.1374 290.613 17.1374H290.569C290.946 17.2929 291.246 17.6261 291.579 18.2702ZM290.38 15.5604C290.158 15.5604 290.058 15.5715 290.002 15.5826V16.9375H290.336C290.791 16.9375 291.035 16.6265 291.035 16.2267C291.035 15.7825 290.813 15.5604 290.38 15.5604Z" fill="#816A6C"/>
</svg>
