<svg width="67" height="67" viewBox="0 0 67 67" fill="none" xmlns="http://www.w3.org/2000/svg">
<path fill-rule="evenodd" clip-rule="evenodd" d="M29.067 13.0309C31.4031 12.1157 33.5249 11.2845 34.5514 9.31907C35.6933 7.13274 34.6476 3.80385 34.6476 3.80385C34.6476 3.80385 38.5416 6.94379 40.2748 11.4561C41.2963 10.6111 42.0941 9.66564 42.4456 8.41745C43.1143 6.04325 41.4073 3 41.4073 3C41.4073 3 52.5396 8.32584 51.2747 18.4451C50.4308 25.1959 47.0947 27.6742 46.0734 28.2836C47.7657 28.3196 50.3096 28.829 53 31C53 31 50.1626 32.4187 48.1215 33.7599C49.1673 36.1281 50.1838 38.4301 51.2007 40.7327C52.9396 44.6705 54.6794 48.6102 56.5678 52.8869C58.3319 56.8822 59.2073 61.0134 59.2948 65.0777C59.318 66.1514 58.4288 67 57.3549 67H6.21936C5.58807 67 4.99184 66.7028 4.62211 66.1911C2.2807 62.9508 0.588116 59.9505 0 57.5C7.1973 58.3894 14.6303 56.8151 19.5136 52.0182C14.6699 53.4047 9.52612 51.9031 9.52612 51.9031C9.52612 51.9031 12.8556 50.8594 13.9975 48.673C15.024 46.7076 14.4939 44.4913 13.9102 42.0511C13.1953 39.0626 12.4001 35.7382 14.286 32.1274C17.7117 25.5684 22.0869 27.8535 22.0869 27.8535C22.0869 27.8535 17.7117 25.5684 21.1373 19.0094C23.0232 15.3986 26.2058 14.1518 29.067 13.0309ZM39.5 35C40.8807 35 42 33.8807 42 32.5C42 31.1193 40.8807 30 39.5 30C38.1193 30 37 31.1193 37 32.5C37 33.8807 38.1193 35 39.5 35ZM64.9993 41.5C66.4271 38.629 65.2572 35.1441 62.3862 33.7163C59.9367 32.4981 52.9476 33.7421 50.9481 34.1337C50.6688 34.1884 50.5215 34.4846 50.6464 34.7403C51.5407 36.571 54.766 42.895 57.2155 44.1132C60.0866 45.541 63.5715 44.3711 64.9993 41.5Z" fill="#30171B"/>
</svg>
