<svg width="683" height="683" viewBox="0 0 683 683" fill="none" xmlns="http://www.w3.org/2000/svg">
<g opacity="0.5" clip-path="url(#clip0_18579_3146)">
<path fill-rule="evenodd" clip-rule="evenodd" d="M296.31 132.839C320.125 123.509 341.754 115.036 352.218 94.9998C363.859 72.7122 353.199 38.7775 353.199 38.7775C353.199 38.7775 392.895 70.7861 410.562 116.785C420.976 108.171 429.108 98.5327 432.692 85.8087C439.508 61.606 422.107 30.583 422.107 30.583C422.107 30.583 535.59 84.8748 522.695 188.031C514.095 256.833 480.1 282.101 469.68 288.32C486.932 288.689 512.862 293.882 540.286 316.011C540.286 316.011 511.359 330.475 490.551 344.148C501.191 368.242 511.533 391.662 521.878 415.088L522.448 416.38C540.007 456.14 557.587 495.951 576.654 539.131C594.413 579.352 603.337 620.924 604.416 661.856C604.727 673.665 594.941 683.001 583.128 683.001H64.2088C57.2647 683.001 50.7048 679.733 46.645 674.1C23.0217 641.318 5.9556 610.973 0 586.158C73.3695 595.224 149.142 579.176 198.922 530.276C149.546 544.41 97.1095 529.103 97.1095 529.103C97.1095 529.103 131.05 518.463 142.691 496.175C153.155 476.139 147.751 453.547 141.801 428.671C134.514 398.206 126.407 364.317 145.632 327.508C180.553 260.646 225.154 283.94 225.154 283.94C225.154 283.94 180.553 260.646 215.474 193.783C234.699 156.975 267.143 144.265 296.31 132.839ZM402.665 356.789C416.74 356.789 428.15 345.379 428.15 331.304C428.15 317.229 416.74 305.819 402.665 305.819C388.59 305.819 377.18 317.229 377.18 331.304C377.18 345.379 388.59 356.789 402.665 356.789ZM662.6 423.057C677.155 393.79 665.229 358.265 635.962 343.709C610.992 331.291 539.745 343.973 519.361 347.965C516.515 348.522 515.013 351.542 516.286 354.148C525.403 372.811 558.282 437.277 583.252 449.696C612.519 464.251 648.045 452.325 662.6 423.057Z" fill="#5D4043"/>
</g>
<defs>
<clipPath id="clip0_18579_3146">
<rect width="683" height="683" fill="white"/>
</clipPath>
</defs>
</svg>
