<svg width="5" height="6" viewBox="0 0 5 6" fill="none" xmlns="http://www.w3.org/2000/svg">
<path d="M2.13856 0.955091C3.34807 0.955091 4.19473 1.92981 4.19473 3.33142C4.19473 4.71169 3.34807 5.68641 2.13856 5.68641C0.936162 5.68641 0.0895042 4.71169 0.0895042 3.33142C0.0895042 1.92981 0.936162 0.955091 2.13856 0.955091ZM2.13856 5.37336C3.14886 5.37336 3.85322 4.5694 3.85322 3.33142C3.85322 2.07211 3.14886 1.26103 2.14567 1.26103C1.14249 1.26103 0.431013 2.07922 0.431013 3.33142C0.431013 4.5694 1.12826 5.37336 2.13856 5.37336ZM2.85004 3.93618C2.95676 4.14251 3.1204 4.36307 3.25558 4.3773L3.28404 4.50536H2.71485C2.56544 4.50536 2.47295 4.36307 2.34489 3.97887C2.1599 3.46661 2.01761 3.29585 1.83974 3.23182V4.00733C1.83974 4.2848 1.89666 4.37018 2.06741 4.3773L2.08875 4.50536H1.09269L1.12115 4.3773C1.26344 4.37018 1.35593 4.32038 1.35593 4.00733V2.52034C1.35593 2.20729 1.26344 2.15037 1.12115 2.13614L1.09269 2.02942H1.41997C1.69033 2.02942 1.93934 2.00808 2.0603 2.00808C2.67217 2.00808 3.01368 2.22863 3.01368 2.61995C3.01368 2.94011 2.71485 3.21047 2.23105 3.21047H2.20259C2.44449 3.31008 2.63659 3.52352 2.85004 3.93618ZM2.08164 2.20018C1.93934 2.20018 1.87531 2.20729 1.83974 2.21441V3.08241H2.05318C2.34489 3.08241 2.50141 2.88319 2.50141 2.62706C2.50141 2.34247 2.35912 2.20018 2.08164 2.20018Z" fill="#5D4043"/>
</svg>
