<svg width="24" height="24" viewBox="0 0 24 24" fill="none" xmlns="http://www.w3.org/2000/svg">
<path fill-rule="evenodd" clip-rule="evenodd" d="M4.5 5.5H19.5V18.5H4.5V5.5ZM9.5 17.5H11.5V13.5H9.5V17.5ZM12.5 17.5H14.5V13.5H12.5V17.5ZM15.5 17.5V12.5H8.5V17.5H5.5V10.814C6.47082 11.1853 7.5679 11.1085 8.48649 10.5836L8.5 10.5759L8.51351 10.5836C9.58953 11.1985 10.9105 11.1985 11.9865 10.5836L12 10.5759L12.0135 10.5836C13.0895 11.1985 14.4105 11.1985 15.4865 10.5836L15.5 10.5759L15.5135 10.5836C16.4321 11.1085 17.5292 11.1853 18.5 10.814V17.5H15.5ZM18.5 6.5V9.70984L18.4903 9.71535C17.7218 10.1545 16.7782 10.1545 16.0097 9.71535L15.5 9.42412L14.9903 9.71535C14.2218 10.1545 13.2782 10.1545 12.5097 9.71535L12 9.42412L11.4903 9.71535C10.7218 10.1545 9.77823 10.1545 9.00965 9.71535L8.5 9.42412L7.99035 9.71535C7.22177 10.1545 6.27823 10.1545 5.50965 9.71535L5.5 9.70984V6.5H18.5Z" fill="white"/>
</svg>
