<svg width="19" height="22" viewBox="0 0 19 22" fill="none" xmlns="http://www.w3.org/2000/svg">
<path d="M14.7049 10.108C14.5429 7.121 12.9109 5.411 10.1709 5.394C8.51885 5.384 7.13785 6.084 6.29185 7.367L7.79985 8.4C8.43385 7.439 9.43485 7.24 10.1599 7.247C11.0629 7.253 11.7429 7.515 12.1839 8.027C12.5039 8.399 12.7189 8.914 12.8259 9.563C12.0259 9.427 11.1599 9.385 10.2359 9.438C7.62985 9.588 5.95585 11.108 6.06785 13.219C6.12485 14.29 6.65785 15.212 7.56985 15.814C8.33985 16.323 9.33385 16.571 10.3649 16.515C11.7279 16.44 12.7969 15.921 13.5429 14.97C14.1089 14.248 14.4669 13.312 14.6249 12.134C15.2749 12.526 15.7549 13.041 16.0219 13.661C16.4739 14.715 16.4999 16.447 15.0869 17.859C13.8489 19.095 12.3609 19.631 10.1119 19.647C7.61685 19.629 5.72985 18.828 4.50385 17.269C3.35385 15.809 2.76085 13.699 2.73885 11C2.76085 8.3 3.35485 6.191 4.50385 4.73C5.72985 3.171 7.61685 2.371 10.1119 2.353C12.6249 2.372 14.5439 3.175 15.8179 4.743C16.4429 5.511 16.9129 6.477 17.2239 7.603L18.9899 7.133C18.6129 5.746 18.0209 4.551 17.2159 3.56C15.5829 1.55 13.1829 0.521 10.1059 0.5C7.03485 0.521 4.67385 1.555 3.08685 3.571C1.67585 5.366 0.946852 7.877 0.922852 11.007C0.946852 14.137 1.67585 16.634 3.08685 18.429C4.67385 20.445 7.04685 21.479 10.1169 21.5C12.8479 21.481 14.7719 20.766 16.3569 19.183C18.4319 17.11 18.3689 14.513 17.6859 12.919C17.1609 11.694 16.1159 10.713 14.7059 10.109M10.2679 14.666C9.12585 14.73 7.93985 14.218 7.88085 13.12C7.83785 12.306 8.46085 11.398 10.3379 11.29C11.1862 11.233 12.0383 11.2916 12.8709 11.464C12.6549 14.166 11.3859 14.604 10.2679 14.666Z" fill="#816A6C"/>
</svg>
