<svg width="16" height="16" viewBox="0 0 16 16" fill="none" xmlns="http://www.w3.org/2000/svg">
<path d="M6.66634 9.99967L10.1263 7.99967L6.66634 5.99967V9.99967ZM14.373 4.77967C14.4597 5.09301 14.5197 5.51301 14.5597 6.04634C14.6063 6.57967 14.6263 7.03967 14.6263 7.43967L14.6663 7.99967C14.6663 9.45967 14.5597 10.533 14.373 11.2197C14.2063 11.8197 13.8197 12.2063 13.2197 12.373C12.9063 12.4597 12.333 12.5197 11.453 12.5597C10.5863 12.6063 9.79301 12.6263 9.05967 12.6263L7.99967 12.6663C5.20634 12.6663 3.46634 12.5597 2.77967 12.373C2.17967 12.2063 1.79301 11.8197 1.62634 11.2197C1.53967 10.9063 1.47967 10.4863 1.43967 9.95301C1.39301 9.41967 1.37301 8.95967 1.37301 8.55967L1.33301 7.99967C1.33301 6.53967 1.43967 5.46634 1.62634 4.77967C1.79301 4.17967 2.17967 3.79301 2.77967 3.62634C3.09301 3.53967 3.66634 3.47967 4.54634 3.43967C5.41301 3.39301 6.20634 3.37301 6.93967 3.37301L7.99967 3.33301C10.793 3.33301 12.533 3.43967 13.2197 3.62634C13.8197 3.79301 14.2063 4.17967 14.373 4.77967Z" fill="#30171B"/>
</svg>
